<svg width="20" height="20" viewBox="0 0 20 20" fill="none" xmlns="http://www.w3.org/2000/svg">
<g clip-path="url(#clip0_135_272)">
<path d="M14.1667 2.50001H17.5C17.721 2.50001 17.933 2.58781 18.0893 2.74409C18.2455 2.90037 18.3333 3.11233 18.3333 3.33334V16.6667C18.3333 16.8877 18.2455 17.0997 18.0893 17.2559C17.933 17.4122 17.721 17.5 17.5 17.5H2.5C2.27898 17.5 2.06702 17.4122 1.91074 17.2559C1.75446 17.0997 1.66666 16.8877 1.66666 16.6667V3.33334C1.66666 3.11233 1.75446 2.90037 1.91074 2.74409C2.06702 2.58781 2.27898 2.50001 2.5 2.50001H5.83333V0.833344H7.5V2.50001H12.5V0.833344H14.1667V2.50001ZM3.33333 7.50001V15.8333H16.6667V7.50001H3.33333ZM5 9.16668H6.66666V10.8333H5V9.16668ZM9.16666 9.16668H10.8333V10.8333H9.16666V9.16668ZM13.3333 9.16668H15V10.8333H13.3333V9.16668Z" fill="#F56F53"/>
</g>
<defs>
<clipPath id="clip0_135_272">
<rect width="20" height="20" fill="white"/>
</clipPath>
</defs>
</svg>
