<svg width="20" height="20" viewBox="0 0 20 20" fill="none" xmlns="http://www.w3.org/2000/svg">
<g clip-path="url(#clip0_135_212)">
<path d="M12.2965 18.6016L18.6375 1.36426C18.6812 1.26787 18.6928 1.15988 18.6705 1.05637C18.6479 0.95306 18.5926 0.859517 18.5129 0.789964C18.4329 0.720213 18.3329 0.67832 18.2273 0.670183C18.1218 0.662046 18.0162 0.688283 17.9268 0.744818L0.944557 9.85545C0.848979 9.90385 0.7717 9.98214 0.72472 10.0785C0.67754 10.1747 0.663304 10.2837 0.683844 10.3891C0.704588 10.4942 0.758885 10.5898 0.839011 10.6612C0.918935 10.7325 1.02001 10.7761 1.12677 10.7848L9.03479 11.6959C9.13098 11.7058 9.22209 11.7441 9.29652 11.8057C9.37115 11.8673 9.42586 11.9495 9.45392 12.042L11.276 18.4741C11.2592 18.6093 11.2966 18.746 11.3804 18.8534C11.4642 18.9612 11.5872 19.0311 11.7224 19.048C11.8579 19.0651 11.9943 19.0275 12.1019 18.9437C12.2095 18.8601 12.2794 18.7368 12.2965 18.6016Z" fill="#F56F53"/>
</g>
<defs>
<clipPath id="clip0_135_212">
<rect width="18" height="18.3905" fill="white" transform="translate(0.666672 0.666656)"/>
</clipPath>
</defs>
</svg>
