<svg width="20" height="20" viewBox="0 0 20 20" fill="none" xmlns="http://www.w3.org/2000/svg">
<g clip-path="url(#clip0_135_221)">
<path d="M10.0012 0.663198C6.69585 0.663198 4.00578 3.35032 4.00578 6.65556C4.00578 8.57871 5.70296 11.4413 6.82358 13.3345C6.99303 13.6197 7.15054 13.8872 7.2872 14.125L9.73945 18.3727C9.79292 18.4648 9.89099 18.5213 9.99807 18.5213C10.105 18.5213 10.2032 18.4648 10.2567 18.3727L12.7178 14.125C12.8575 13.8843 13.0151 13.6168 13.1874 13.3254C14.308 11.438 15.9992 8.58147 15.9992 6.65535C16.0023 3.35015 13.3093 0.662994 10.0011 0.662994L10.0012 0.663198ZM10.0012 9.48222C8.35152 9.48222 7.00797 8.13866 7.00797 6.489C7.00797 4.83933 8.35152 3.48688 10.0012 3.48688C11.6509 3.48688 13.0033 4.83336 13.0033 6.489C13.0033 8.14464 11.6568 9.48222 10.0012 9.48222Z" fill="#F56F53"/>
</g>
<defs>
<clipPath id="clip0_135_221">
<rect width="12" height="17.8599" fill="white" transform="translate(4 0.666656)"/>
</clipPath>
</defs>
</svg>
