<svg width="43" height="41" viewBox="0 0 43 41" fill="none" xmlns="http://www.w3.org/2000/svg">
<g clip-path="url(#clip0_28_466)">
<path d="M42.6853 20.7131C42.6853 16.3251 39.1154 12.7552 34.7259 12.7552C30.3379 12.7552 26.768 16.3251 26.768 20.7131C26.768 24.6178 33.1611 32.761 34.7259 34.6968C36.2921 32.7619 42.6853 24.6181 42.6853 20.7131ZM29.606 20.7131C29.606 17.8898 31.9027 15.5934 34.7257 15.5934C37.5502 15.5934 39.8469 17.8901 39.8469 20.7131C39.8469 23.5364 37.5502 25.8328 34.7257 25.8328C31.9027 25.8331 29.606 23.5364 29.606 20.7131Z" fill="#F56F53"/>
<path d="M17.2917 7.24201C17.2917 3.67371 14.3882 0.770264 10.82 0.770264C7.25166 0.770264 4.34821 3.67371 4.34821 7.24201C4.34821 10.3835 9.43823 16.9135 10.82 18.6286C12.2017 16.9136 17.2917 10.3835 17.2917 7.24201ZM6.68329 7.24201C6.68329 4.96167 8.53961 3.10535 10.82 3.10535C13.1003 3.10535 14.9566 4.96167 14.9566 7.24201C14.9566 9.52359 13.1003 11.3787 10.82 11.3787C8.53961 11.3787 6.68329 9.5239 6.68329 7.24201Z" fill="#F56F53"/>
<path d="M34.7259 36.7954C34.293 36.7954 33.8974 36.9605 33.5998 37.2327L22.0025 29.9382C22.0307 29.8164 22.0458 29.6884 22.0458 29.5574C22.0458 28.6336 21.2947 27.8826 20.371 27.8826C19.4635 27.8826 18.7228 28.607 18.6977 29.5084L11.5521 31.4763C11.2665 30.9588 10.716 30.6076 10.0838 30.6076C9.68972 30.6076 9.32523 30.7443 9.03818 30.9751L3.22826 26.5021C3.3072 26.3073 3.35167 26.0946 3.35167 25.8714C3.35167 25.7807 3.34411 25.6929 3.3308 25.6067L9.83522 22.6467C10.1431 23.0142 10.6041 23.2477 11.1189 23.2477C12.0427 23.2477 12.7937 22.4967 12.7937 21.5729C12.7937 20.6491 12.0427 19.8981 11.1189 19.8981C10.1967 19.8981 9.44565 20.6491 9.44565 21.5729C9.44565 21.6621 9.45322 21.7498 9.46653 21.8345L2.96055 24.7961C2.65263 24.4301 2.19166 24.1965 1.67686 24.1965C0.753073 24.1965 0.00204468 24.9479 0.00204468 25.8714C0.00204468 26.7936 0.753089 27.5446 1.67686 27.5446C2.05314 27.5446 2.4028 27.4197 2.68225 27.2086L8.51308 31.6979C8.44624 31.8794 8.40903 32.0772 8.40903 32.2826C8.40903 33.2064 9.16007 33.9574 10.0838 33.9574C10.9867 33.9574 11.7245 33.2406 11.7571 32.345L18.9088 30.374C19.1958 30.8858 19.7433 31.2322 20.371 31.2322C20.8425 31.2322 21.2694 31.0359 21.5727 30.7219L33.1243 37.988C33.0783 38.1398 33.0529 38.3019 33.0529 38.4683C33.0529 39.3921 33.804 40.1431 34.7262 40.1431C35.65 40.1431 36.401 39.392 36.401 38.4683C36.401 37.5464 35.6499 36.7953 34.7262 36.7953L34.7259 36.7954ZM11.1187 20.7906C11.55 20.7906 11.9012 21.1415 11.9012 21.5731C11.9012 22.0044 11.55 22.3555 11.1187 22.3555C10.8032 22.3555 10.5313 22.1665 10.4076 21.8973C10.3628 21.799 10.3377 21.6892 10.3377 21.573C10.3377 21.1417 10.6889 20.7906 11.1187 20.7906ZM2.29668 26.3447C2.29215 26.3538 2.2864 26.361 2.28035 26.3686C2.13607 26.5425 1.91889 26.6526 1.6763 26.6526C1.24498 26.6526 0.893838 26.3029 0.893838 25.8716C0.893838 25.4403 1.24501 25.0891 1.6763 25.0891C1.99178 25.0891 2.26371 25.2767 2.38742 25.5459C2.39196 25.5531 2.39499 25.5592 2.39771 25.5667C2.43642 25.6605 2.45881 25.7631 2.45881 25.8716C2.45881 26.0501 2.39923 26.2137 2.29668 26.3447ZM10.0834 33.0651C9.65208 33.0651 9.30094 32.7142 9.30094 32.2826C9.30094 32.1205 9.34994 31.9701 9.43494 31.8452V31.8437C9.5762 31.6368 9.81424 31.5001 10.0834 31.5001C10.4612 31.5001 10.7767 31.7693 10.8496 32.1247C10.8511 32.1277 10.8511 32.1292 10.8511 32.132C10.8614 32.181 10.8659 32.2303 10.8659 32.2823C10.8659 32.7139 10.5147 33.0651 10.0834 33.0651ZM21.0813 29.8863C21.0722 29.9012 21.065 29.916 21.0574 29.9311C21.0559 29.9356 21.0529 29.9384 21.0514 29.9429C20.9162 30.1794 20.6618 30.34 20.3702 30.34C19.9389 30.34 19.5877 29.9889 19.5877 29.5576C19.5877 29.1263 19.9389 28.7751 20.3702 28.7751C20.8015 28.7751 21.1527 29.126 21.1527 29.5576C21.153 29.6752 21.1276 29.7865 21.0813 29.8863ZM34.7259 39.2512C34.2946 39.2512 33.9449 38.9003 33.9449 38.4687C33.9449 38.0374 34.2946 37.6877 34.7259 37.6877C35.1572 37.6877 35.5084 38.0374 35.5084 38.4687C35.5084 38.9 35.1572 39.2512 34.7259 39.2512Z" fill="#F56F53"/>
</g>
<defs>
<clipPath id="clip0_28_466">
<rect width="42.6853" height="39.375" fill="white" transform="translate(0 0.75)"/>
</clipPath>
</defs>
</svg>
