<svg width="44" height="44" viewBox="0 0 44 44" fill="none" xmlns="http://www.w3.org/2000/svg">
<g clip-path="url(#clip0_30_479)">
<path fill-rule="evenodd" clip-rule="evenodd" d="M24.4276 1.71222C23.2746 0.76129 21.6091 0.76129 20.4557 1.71222C19.5803 2.4342 18.5923 3.24896 17.8867 3.83123C17.2768 4.33417 16.4986 4.58693 15.7096 4.53876C14.7966 4.48255 13.5187 4.40419 12.3859 4.33449C10.894 4.24296 9.54646 5.22187 9.17261 6.66907C8.8887 7.76808 8.5685 9.00777 8.33982 9.89325C8.14199 10.6589 7.6612 11.3208 6.99416 11.7454C6.22273 12.2364 5.14261 12.9244 4.18526 13.5339C2.92437 14.3369 2.40952 15.9208 2.95775 17.3111C3.37398 18.3668 3.84381 19.5583 4.1791 20.4091C4.46911 21.1446 4.46911 21.9629 4.1791 22.6984C3.8438 23.5492 3.37394 24.7407 2.95775 25.7964C2.40952 27.187 2.92435 28.771 4.18526 29.5735C5.14269 30.1828 6.22271 30.8707 6.99416 31.3621C7.66122 31.7867 8.14201 32.4486 8.33982 33.2142C8.56849 34.0997 8.88869 35.3397 9.17261 36.4384C9.54645 37.8856 10.8941 38.8645 12.3859 38.773C13.5186 38.7036 14.7968 38.6249 15.7096 38.5687C16.4987 38.5202 17.2768 38.773 17.8867 39.2763C18.5923 39.8582 19.5803 40.673 20.4557 41.395C21.6087 42.3459 23.2742 42.3459 24.4276 41.395C25.303 40.673 26.291 39.8583 26.9966 39.2763C27.6065 38.773 28.3847 38.5202 29.1737 38.5687C30.0865 38.6249 31.3647 38.7033 32.4975 38.773C33.9893 38.8648 35.3369 37.8859 35.7104 36.4384C35.9943 35.3397 36.3145 34.0997 36.5432 33.2142C36.741 32.4486 37.2218 31.7867 37.8888 31.3621C38.6603 30.8707 39.7406 30.1831 40.698 29.5735C41.9589 28.7706 42.4735 27.1867 41.9252 25.7964C41.509 24.7407 41.0395 23.5492 40.7039 22.6984C40.4139 21.9629 40.4139 21.1446 40.7039 20.4091C41.0392 19.5583 41.509 18.3668 41.9252 17.3111C42.4735 15.9205 41.9586 14.3365 40.698 13.5339C39.7406 12.9244 38.6606 12.2368 37.8888 11.7454C37.2221 11.3208 36.741 10.6589 36.5432 9.89325C36.3145 9.00777 35.994 7.76775 35.7104 6.66907C35.3365 5.22187 33.9892 4.24298 32.4975 4.33449C31.3647 4.40419 30.0865 4.48255 29.1737 4.53876C28.3846 4.58725 27.6065 4.33449 26.9966 3.83123C26.291 3.24928 25.303 2.43451 24.4276 1.71222ZM28.1429 24.5146C29.6147 25.9864 29.6147 28.3769 28.1429 29.8488C26.671 31.3207 24.2805 31.3207 22.8086 29.8488C21.3368 28.3769 21.3368 25.9864 22.8086 24.5146C24.2805 23.0427 26.671 23.0427 28.1429 24.5146ZM27.8862 14.0679L13.9001 28.0541C13.4984 28.4558 13.4984 29.1084 13.9001 29.5102C14.3019 29.912 14.9545 29.912 15.3563 29.5102L29.3424 15.5241C29.7442 15.1223 29.7442 14.4697 29.3424 14.0679C28.9406 13.6662 28.288 13.6662 27.8862 14.0679ZM26.6867 25.9706C27.355 26.639 27.355 27.7242 26.6867 28.3925C26.0183 29.0609 24.9328 29.0609 24.2645 28.3925C23.5961 27.7242 23.5961 26.639 24.2645 25.9706C24.9328 25.3023 26.018 25.3023 26.6867 25.9706ZM21.0853 13.0772C22.5571 14.5491 22.5571 16.9396 21.0853 18.4114C19.6134 19.8833 17.2229 19.8833 15.751 18.4114C14.2792 16.9396 14.2792 14.5491 15.751 13.0772C17.2229 11.6054 19.6134 11.6054 21.0853 13.0772ZM19.6291 14.5334C20.2974 15.2017 20.2974 16.2873 19.6291 16.9556C18.9607 17.6239 17.8752 17.6239 17.2069 16.9556C16.5385 16.2873 16.5385 15.2021 17.2069 14.5334C17.8752 13.865 18.9607 13.865 19.6291 14.5334Z" fill="#F56F53"/>
</g>
<defs>
<clipPath id="clip0_30_479">
<rect width="39.403" height="41.1296" fill="white" transform="translate(2.75 1)"/>
</clipPath>
</defs>
</svg>
