<svg width="44" height="44" viewBox="0 0 44 44" fill="none" xmlns="http://www.w3.org/2000/svg">
<g clip-path="url(#clip0_30_482)">
<path d="M37.0544 6.72885C38.0873 5.70229 38.1852 3.92449 37.1459 2.89793C36.2189 1.99553 34.771 1.87674 33.6945 2.69555C33.1063 2.19193 32.3414 1.89136 31.5112 1.89136H20.2027C18.3397 1.89136 16.8361 3.40158 16.8361 5.25829V6.01621C16.7249 5.98359 16.6074 5.95763 16.4896 5.93799C15.947 5.85278 15.1494 5.7872 14.5613 6.27119C13.8619 6.84637 13.8423 7.83995 13.816 9.10187C13.7964 10.5921 13.7571 12.4488 12.7243 14.5012C10.116 19.6719 9.76311 24.9279 11.77 28.1242L11.306 28.5685L10.9724 28.2287C10.7241 27.987 10.3317 27.9741 10.077 28.216L6.48844 31.5826C6.20683 31.822 6.21649 32.2657 6.4688 32.504L16.2546 42.237C16.5406 42.4946 16.927 42.4666 17.1567 42.237L20.6344 38.8118C20.8847 38.5609 20.907 38.1694 20.6344 37.8965L20.1964 37.4521L21.177 36.5697C22.2818 36.5504 26.3606 36.2166 29.1584 32.373L31.8908 32.2615C33.5645 32.1962 34.8849 30.8235 34.8849 29.1502V24.0647L36.735 22.9206C36.7479 22.9077 36.7613 22.901 36.7742 22.8877C37.8986 22.0655 38.0954 20.4984 37.3038 19.4296C37.0751 19.129 36.8005 18.887 36.4867 18.7236L36.8332 18.5015C36.8461 18.4952 36.8595 18.4886 36.8724 18.4753C37.9706 17.6647 38.2059 16.1223 37.3954 15.0238C37.1797 14.7295 36.9051 14.4942 36.5848 14.3178C36.9383 14.0984 36.8405 14.157 36.8724 14.1414C37.9073 13.3748 38.2472 11.8476 37.3954 10.6833C36.8365 9.91968 35.9038 9.53289 34.8853 9.72266V8.90549L37.0544 6.72885ZM9.93288 32.8892C9.41661 32.8892 8.99154 32.4708 8.99154 31.9541C8.99154 31.4312 9.4166 31.0128 9.93288 31.0128C10.4495 31.0128 10.8742 31.4312 10.8742 31.9541C10.8742 32.4707 10.4492 32.8892 9.93288 32.8892ZM24.569 3.83246H27.1444C27.4517 3.83246 27.7 4.08078 27.7 4.38801C27.7 4.69491 27.4516 4.94355 27.1444 4.94355H24.569C24.2618 4.94355 24.0198 4.6949 24.0198 4.38801C24.0201 4.08077 24.2618 3.83246 24.569 3.83246ZM20.9674 35.2811C20.7973 35.2748 20.6339 35.3334 20.5034 35.4512L19.2874 36.5427L12.2207 29.47L13.0509 28.6658C13.2862 28.4438 13.3188 28.0777 13.1228 27.823C11.0571 25.0842 11.3447 20.0767 13.8681 15.076C15.0317 12.7683 15.0773 10.6636 15.1037 9.12742C15.1233 8.30358 15.1363 7.45375 15.3783 7.25776C15.5091 7.15324 15.836 7.13394 16.2803 7.21216C17.6927 7.44117 18.0468 8.98765 18.1171 10.4087C18.1887 11.6725 17.971 13.4503 17.6724 14.6447L17.4763 15.9915L16.8356 20.2731V29.0065C16.8356 30.8629 18.3455 32.3731 20.2085 32.3731H27.5035C24.7716 35.3988 21.1305 35.2876 20.9674 35.281L20.9674 35.2811ZM25.1312 29.8425C25.1312 29.4371 25.458 29.1102 25.8568 29.1102C26.2622 29.1102 26.5891 29.437 26.5891 29.8425C26.5891 30.2412 26.2623 30.5681 25.8568 30.5681C25.458 30.5681 25.1312 30.2412 25.1312 29.8425ZM33.5966 27.3584C32.8839 27.4632 31.629 27.3584 31.629 27.3584H18.1168V20.4098L18.934 14.8993C19.4965 12.6462 19.889 8.45108 18.202 6.83937H33.5966V10.3694L31.7728 11.5198C30.6527 12.3486 30.455 13.8797 31.2499 14.9712C31.4656 15.2718 31.7469 15.5071 32.0604 15.6772L31.7728 15.8536C30.6747 16.6642 30.4457 18.2133 31.2499 19.3118C31.4656 19.6057 31.7336 19.8477 32.0475 20.0111L31.871 20.1289C30.746 20.9518 30.5499 22.5112 31.3415 23.5804C31.8258 24.2345 32.6023 24.6548 33.5966 24.574L33.5966 27.3584ZM36.0348 21.8349C31.9908 24.3436 36.2721 21.6884 34.0346 23.0704C33.5199 23.4559 32.7647 23.3564 32.3806 22.8221C31.9925 22.2999 32.1033 21.5679 32.5899 21.1877C34.8707 19.7781 34.7549 19.8387 34.8844 19.795C35.3344 19.6026 35.9305 19.7371 36.2638 20.1938C36.6493 20.7131 36.5527 21.4434 36.0348 21.8349ZM36.1263 17.4291C33.8608 18.8511 33.8336 18.903 33.5965 18.9783C33.1258 19.1287 32.5963 18.9719 32.289 18.5535C31.8969 18.0306 32.0144 17.2853 32.498 16.9192C35.0551 15.3101 34.83 15.4489 34.884 15.4223C35.3786 15.185 36.0157 15.3081 36.3612 15.7818C36.7407 16.3047 36.6362 17.037 36.1263 17.4291ZM36.3616 11.4479C36.7178 11.9146 36.6778 12.6482 36.1263 13.0953C36.0604 13.1365 34.4889 14.1201 33.9431 14.4617C33.4601 14.8225 32.6945 14.7649 32.2891 14.213C31.8613 13.6428 32.0674 12.8925 32.4981 12.5786C32.5663 12.5357 34.1505 11.5395 34.701 11.1929C34.7599 11.1536 34.8185 11.1143 34.8841 11.088C35.42 10.8101 36.0415 11.0022 36.3617 11.4479L36.3616 11.4479ZM34.4986 3.70822C34.9789 3.32377 35.7492 3.32476 36.2505 3.82572C36.7734 4.34898 36.7734 5.19211 36.2505 5.72171L34.8845 7.08775V5.25764C34.8845 4.70176 34.747 4.1722 34.4987 3.70813L34.4986 3.70822Z" fill="#F56F53"/>
<path d="M23.8013 15.3182C23.6036 15.2307 23.3706 15.2686 23.2304 15.4224C23.1412 15.5196 23.0956 15.6361 23.0956 15.7679C23.0956 15.8701 23.1269 15.967 23.1888 16.0558C23.2498 16.1434 23.3277 16.2076 23.4202 16.2462C23.9937 16.4909 24.6165 16.6403 25.2725 16.6926V17.2728C25.2725 17.3889 25.3098 17.4828 25.3837 17.5524C25.4556 17.6203 25.5465 17.6549 25.6543 17.6549C25.7688 17.6549 25.864 17.6183 25.9366 17.5457C26.0092 17.4732 26.0458 17.3813 26.0458 17.2728V16.6926C26.4549 16.6593 26.823 16.5644 27.1406 16.41C27.4861 16.2422 27.7574 16.0126 27.9461 15.728V15.7276C28.1362 15.4414 28.232 15.1175 28.232 14.765C28.232 14.3343 28.1229 13.9808 27.9075 13.7145C27.6961 13.4538 27.4302 13.2545 27.117 13.1226C26.8307 13.0022 26.4705 12.8886 26.0458 12.7855V10.7134C26.4882 10.7391 26.9086 10.8213 27.2931 10.9571C27.3687 10.9874 27.4302 11.0017 27.4812 11.0017C27.6243 11.0017 27.7415 10.9488 27.8307 10.8439C27.9149 10.744 27.9578 10.6302 27.9578 10.5061C27.9578 10.2757 27.844 10.1129 27.6296 10.0361C27.1673 9.85964 26.6347 9.75379 26.0459 9.7215V9.16196C26.0459 9.05379 26.0079 8.96025 25.9323 8.88469C25.7812 8.73357 25.5223 8.73457 25.3801 8.88669C25.3089 8.96191 25.2729 9.05479 25.2729 9.1623V9.73582C24.8499 9.78143 24.4801 9.89427 24.1722 10.071C23.84 10.2617 23.5857 10.5064 23.4169 10.7977C23.2481 11.0892 23.1626 11.4114 23.1626 11.7553C23.1626 12.149 23.2684 12.4802 23.4775 12.7396C23.6815 12.9929 23.9402 13.1923 24.2471 13.3307C24.5273 13.4572 24.8722 13.5764 25.2729 13.6856V15.683C24.762 15.6484 24.2677 15.5259 23.8013 15.3182ZM26.0455 13.8813C26.4159 13.9881 26.7019 14.1016 26.8953 14.2191C27.0897 14.3373 27.1842 14.4967 27.1842 14.7081C27.1842 15.2833 26.8114 15.6018 26.0458 15.6797L26.0455 13.8813ZM24.4954 12.2529C24.3096 12.1194 24.2194 11.935 24.2194 11.6891C24.2194 11.4284 24.3186 11.2227 24.523 11.0609C24.7127 10.9105 24.9644 10.8073 25.2726 10.753V12.5921C24.9357 12.4952 24.6748 12.3811 24.4954 12.2529Z" fill="#F56F53"/>
<path d="M28.3406 21.4109H23.3726C22.7844 21.4109 22.3004 21.8882 22.3004 22.4827V24.0781C22.3004 24.6726 22.7841 25.1499 23.3726 25.1499L28.3406 25.1496C28.9354 25.1496 29.4127 24.6723 29.4127 24.0778V22.4824C29.4124 21.8879 28.9354 21.4109 28.3406 21.4109Z" fill="#F56F53"/>
</g>
<defs>
<clipPath id="clip0_30_482">
<rect width="31.6353" height="40.5187" fill="white" transform="translate(6.25 1.875)"/>
</clipPath>
</defs>
</svg>
