<svg width="44" height="44" viewBox="0 0 44 44" fill="none" xmlns="http://www.w3.org/2000/svg">
<g clip-path="url(#clip0_30_480)">
<path d="M37.4653 8.41385C32.5687 8.0133 27.9839 5.92117 24.5119 2.44911L23.6217 1.51417C23.2655 1.15802 22.7758 0.980103 22.2862 0.980103C21.7965 0.980103 21.3069 1.15802 20.9507 1.51417L20.0605 2.44911C16.5884 5.92117 12.0036 8.01331 7.10706 8.41385C6.12776 8.50297 5.37103 9.30404 5.37103 10.2834V15.6697C5.37103 26.9762 11.514 37.4814 21.3514 43.0456C21.6184 43.2235 21.9746 43.2682 22.2863 43.2682C22.5981 43.2682 22.9095 43.1791 23.2213 43.0456C33.0588 37.4814 39.2017 26.9762 39.2017 15.6697V10.2834C39.2017 9.30412 38.445 8.50304 37.4656 8.41385H37.4653ZM30.4322 18.5184L22.1081 27.5547C21.752 27.9108 21.2623 28.1335 20.7726 28.1779H20.7282C20.2386 28.1779 19.7489 27.9999 19.3928 27.6438L14.7188 22.8807C14.0065 22.1684 14.0065 20.9668 14.7188 20.2545C15.431 19.5422 16.6327 19.5422 17.345 20.2545L20.6835 23.593L27.6723 15.981C28.3846 15.2243 29.5418 15.1799 30.2985 15.8475C31.0552 16.5598 31.0996 17.7617 30.432 18.5185L30.4322 18.5184Z" fill="#F56F53"/>
</g>
<defs>
<clipPath id="clip0_30_480">
<rect width="33.8025" height="42.268" fill="white" transform="translate(5.375 1)"/>
</clipPath>
</defs>
</svg>
