<svg width="44" height="44" viewBox="0 0 44 44" fill="none" xmlns="http://www.w3.org/2000/svg">
<g clip-path="url(#clip0_30_481)">
<path d="M19.6847 36.3727C19.3056 36.7984 18.8069 37.051 18.2551 37.0774H18.1752C17.6765 37.0774 17.2046 36.8779 16.8519 36.5256L6.51818 26.1858C6.13909 25.8067 5.93961 25.2946 5.95297 24.7626C5.97286 24.2241 6.21895 23.7186 6.60456 23.3861L7.01689 23.067L2.30912 18.3524C2.30912 18.3524 1.7638 19.0705 1.75727 19.0773C1.67089 19.2038 1.59103 19.33 1.51118 19.4629C1.07243 20.2475 0.926082 21.1719 1.01899 22.0696C1.33158 25.0019 2.20253 27.7683 3.53243 30.255C3.83818 30.8068 4.1576 31.3586 4.5031 31.8841C6.23197 34.5306 8.48627 36.7849 11.1327 38.5137C11.4717 38.7331 11.811 38.9593 12.1699 39.152C14.7433 40.6348 17.6424 41.6188 20.7276 41.978C21.6983 42.0911 22.7025 41.9914 23.5471 41.5126C23.6801 41.4396 23.8131 41.3529 23.9396 41.2665C23.9461 41.26 24.6645 40.7146 24.6645 40.7146L19.9499 36.0069L19.6774 36.3661L19.6847 36.3727Z" fill="#F56F53"/>
<path d="M9.77735 22.2492C10.6219 21.3981 10.6219 20.0216 9.77735 19.1636L6.49918 15.8855C5.65466 15.0409 4.2651 15.0409 3.41366 15.8855L2.92148 16.3777L9.27825 22.7344L9.77696 22.2422L9.77735 22.2492Z" fill="#F56F53"/>
<path d="M23.7945 33.1877C22.95 32.3432 21.5669 32.3432 20.7223 33.1877L20.2302 33.6799L26.5938 40.0367L27.086 39.5445C27.937 38.6934 27.9305 37.3169 27.086 36.459L23.801 33.1808L23.7945 33.1877Z" fill="#F56F53"/>
<path d="M25.4041 1.94807C19.7654 1.51585 14.359 3.69031 10.589 7.78626L9.37214 7.04828C8.88679 6.75558 8.26164 7.09489 8.24826 7.66663L8.12863 13.1391C8.11527 13.7109 8.72709 14.0766 9.22584 13.8041L14.0269 11.171C14.5256 10.8985 14.5389 10.187 14.0536 9.89425L12.9431 9.21594C16.6534 5.45247 22.0464 3.76334 27.4587 4.96679C33.1773 6.23673 37.7324 10.7519 39.1018 16.4503C40.9037 23.9375 37.0073 31.2988 30.4043 34.2907C29.7661 34.5834 29.4466 35.3081 29.6862 35.9665C29.9522 36.7044 30.7899 37.0637 31.5015 36.7445C38.9887 33.3598 43.5101 25.188 41.9142 16.723C40.3917 8.69044 33.5427 2.56605 25.4037 1.94746L25.4041 1.94807Z" fill="#F56F53"/>
<path d="M22.7237 10.546C18.4948 11.0512 15.0301 14.3629 14.3256 18.5588C13.9534 20.773 14.3455 22.8611 15.2631 24.6431L13.7203 29.5239C13.5476 30.0758 14.0662 30.5944 14.618 30.4216L19.4989 28.8788C21.2808 29.7898 23.3755 30.1888 25.5831 29.8163C29.7788 29.1116 33.0905 25.6405 33.5959 21.4182C34.3541 15.0946 29.0475 9.78799 22.7242 10.5464L22.7237 10.546ZM23.2824 24.8557H17.9231V23.5193L21.035 19.3698C21.2012 19.1504 21.3342 18.9177 21.4274 18.6915C21.5138 18.4653 21.5604 18.2528 21.5604 18.0533C21.5604 17.7407 21.4805 17.5213 21.3143 17.3684C21.1481 17.2087 20.8955 17.1292 20.5695 17.1292C20.2637 17.1292 20.0242 17.2156 19.8381 17.3952C19.6519 17.5747 19.5323 17.8339 19.4922 18.1732V18.3727L19.2993 18.3528H17.823V18.1533C17.9426 17.3156 18.2419 16.6839 18.7142 16.2383C19.193 15.7862 19.8179 15.56 20.5627 15.56C21.4004 15.56 22.0653 15.7794 22.5308 16.2116C23.0028 16.6503 23.2423 17.269 23.2423 18.0535C23.2423 18.3925 23.1758 18.7452 23.0363 19.1041C22.9033 19.4633 22.7104 19.8023 22.4711 20.1283L20.1503 23.2803H23.289V24.8494L23.2824 24.8557ZM30.0382 23.5059H29.3797V24.8625H27.7773V23.5059H24.0005V22.1561L27.0061 15.6663H28.7083L25.8222 21.97H27.7705V19.2834H29.3729V21.97H30.0313V23.5127L30.0382 23.5059Z" fill="#F56F53"/>
</g>
<defs>
<clipPath id="clip0_30_481">
<rect width="41.4929" height="40.125" fill="white" transform="translate(1 1.875)"/>
</clipPath>
</defs>
</svg>
