<svg width="44" height="44" viewBox="0 0 44 44" fill="none" xmlns="http://www.w3.org/2000/svg">
<g clip-path="url(#clip0_30_477)">
<path d="M32.075 1.89046H12.8419C10.6859 1.89046 8.93774 3.6386 8.93774 5.79458V38.4323C8.93774 40.5883 10.6859 42.3364 12.8419 42.3364H32.075C34.231 42.3364 35.9791 40.588 35.9791 38.4323V5.79458C35.9791 3.63827 34.231 1.89014 32.075 1.89014V1.89046ZM22.4576 40.8217C21.428 40.8217 20.5928 39.9868 20.5928 38.9566C20.5928 37.9267 21.4277 37.0919 22.4576 37.0919C23.4875 37.0919 24.323 37.9267 24.323 38.9566C24.323 39.9868 23.4878 40.8217 22.4576 40.8217ZM32.1906 35.6929H12.3752V5.73684H32.1906V35.6929Z" fill="#F56F53"/>
<path d="M22.4576 28.9319C26.6356 28.9319 30.0346 25.5336 30.0346 21.3556C30.0346 17.1781 26.6357 13.7792 22.4576 13.7792C18.2805 13.7792 14.8819 17.1781 14.8819 21.3556C14.8822 25.5336 18.2805 28.9319 22.4576 28.9319ZM22.4576 15.5273C25.6772 15.5273 28.2864 18.1362 28.2864 21.3551C28.2864 24.5741 25.6772 27.183 22.4576 27.183C19.2393 27.183 16.6303 24.5741 16.6303 21.3551C16.6303 18.1366 19.2393 15.5273 22.4576 15.5273Z" fill="#F56F53"/>
<path d="M21.6859 24.574L21.6875 24.5749L26.2564 20.0035L24.8343 18.5814L21.6858 21.7302L20.49 20.534L19.0679 21.9561L21.6842 24.5756L21.6859 24.574Z" fill="#F56F53"/>
</g>
<defs>
<clipPath id="clip0_30_477">
<rect width="27.125" height="40.4722" fill="white" transform="translate(8.875 1.875)"/>
</clipPath>
</defs>
</svg>
