<svg width="16" height="20" viewBox="0 0 16 20" fill="none" xmlns="http://www.w3.org/2000/svg">
<g clip-path="url(#clip0_502_1680)">
<path d="M0.813159 17.2941C0.813159 17.2941 4.71009 13.1234 4.71009 13.1238C4.97393 12.8013 5.37345 12.5949 5.82586 12.5948C6.29367 12.5726 6.76176 12.5502 7.22994 12.5281C7.53589 12.5136 7.84184 12.4991 8.14804 12.4846C8.26286 12.4789 8.38569 12.4608 8.49917 12.4818C8.68723 12.517 8.81327 12.6639 8.95549 12.7801C9.15865 12.946 9.36154 13.112 9.56417 13.2782C9.8256 13.4919 10.087 13.7055 10.3483 13.9192C10.6209 14.1421 11.2219 14.4423 10.8679 14.8277C10.5303 15.1956 10.1913 15.4738 9.66134 15.4738H5.92009L2.34377 18.8942C2.12965 19.0997 1.85406 19.2013 1.57886 19.2013C1.28722 19.2013 0.996116 19.0867 0.778498 18.8594C0.356127 18.4179 0.371252 17.7171 0.813249 17.2942L0.813159 17.2941Z" fill="#959595"/>
<path d="M10.5182 6.99456C10.5182 6.99456 10.5337 6.98521 10.5325 6.98908C10.808 6.87387 11.12 6.83938 11.4321 6.91731C11.7603 6.99924 12.058 7.19959 12.2611 7.46919C12.3398 7.57411 12.4057 7.70269 12.4493 7.82607C12.5413 8.08536 12.5473 8.39639 12.4813 8.6617C12.3648 9.12951 12.2486 9.59719 12.1319 10.065C11.9271 10.8881 11.7222 11.7111 11.5172 12.5345C11.4727 12.7131 11.4282 12.8919 11.3836 13.0707C11.3672 13.1361 11.3588 13.2129 11.3326 13.2755C11.209 13.5693 10.9463 13.2648 10.8183 13.1601C10.6431 13.0166 10.4678 12.8736 10.2926 12.73C9.92961 12.4333 9.56657 12.1367 9.20356 11.8397C9.07939 11.738 8.88639 11.6128 8.85164 11.4441C8.81903 11.2861 8.9031 11.1184 8.94066 10.9679C8.98169 10.8029 9.02286 10.6376 9.06416 10.4724L8.68737 10.647C8.49236 10.7375 8.27544 10.7686 8.06264 10.7385L5.2578 10.333C4.65234 10.2453 4.23291 9.68381 4.32044 9.07862C4.40812 8.47354 4.97216 8.05438 5.57482 8.14126L8.05405 8.49999L10.1775 7.20324C10.2812 7.1181 10.3948 7.04766 10.5182 6.9946L10.5182 6.99456Z" fill="#959595"/>
<path d="M6.96594 15.8899H11.2581L11.4861 14.85L11.699 13.8796L13.0201 7.85511C13.1511 7.25766 13.7419 6.88007 14.3386 7.01078C14.9361 7.14177 15.3142 7.73214 15.183 8.32932L13.2305 17.2342C13.1194 17.7423 12.6693 18.1042 12.1492 18.1042H6.96638C6.3549 18.1042 5.8593 17.6087 5.8593 16.9971C5.85863 16.3855 6.35425 15.8899 6.96601 15.8899L6.96594 15.8899Z" fill="#959595"/>
<path d="M14.6407 3.68314C14.5847 3.71762 14.5262 3.7485 14.4691 3.78111C14.3309 3.8601 14.1926 3.9391 14.0541 4.01809C13.9319 4.08786 13.8099 4.15803 13.6875 4.22753C13.5248 4.32016 13.4032 4.25881 13.2612 4.16191C13.1733 4.10203 13.0853 4.04201 12.9977 3.982C12.7615 3.82108 12.5257 3.65988 12.2895 3.49897C11.7635 3.13983 11.2374 2.78083 10.711 2.42193C10.5371 2.30337 10.3634 2.18482 10.1894 2.06614C10.1358 2.02952 10.0422 1.97967 10.0127 1.91845C10.0116 1.91604 10.0105 1.91377 10.0097 1.91137C9.98714 1.85496 10.0115 1.78493 10.024 1.72959C10.0536 1.59861 10.0832 1.46789 10.1128 1.33702C10.1445 1.19708 10.1777 1.05768 10.2065 0.917322C10.2378 0.765486 10.3265 0.761876 10.4509 0.840868C10.516 0.882168 10.581 0.923471 10.6462 0.965037C10.8289 1.08105 11.0115 1.19693 11.1942 1.31295C11.702 1.63534 12.2095 1.95759 12.7171 2.28012C13.1958 2.58393 13.6745 2.88801 14.1532 3.19192C14.3011 3.28575 14.4495 3.37905 14.5971 3.47381C14.6874 3.53155 14.7732 3.60159 14.6408 3.68312L14.6407 3.68314Z" fill="#959595"/>
<path d="M12.1069 3.89761C12.285 4.01924 12.4632 4.14074 12.6415 4.26209C12.7317 4.32384 12.8221 4.38532 12.9123 4.44694C12.9576 4.47754 13.0025 4.50842 13.0477 4.53929C13.0926 4.57017 13.1254 4.58019 13.1181 4.63687C13.1177 4.63967 13.1173 4.64261 13.1171 4.64542C13.112 4.69167 13.1116 4.73845 13.1084 4.78509C13.1016 4.88413 13.0871 4.98264 13.0652 5.07954C13.0228 5.2684 12.952 5.45086 12.8566 5.61952C12.668 5.95206 12.3837 6.22792 12.0453 6.40623C11.7685 6.55191 11.4581 6.62984 11.1451 6.63211C10.0699 6.63973 9.14591 5.72082 9.14697 4.64488C9.14697 4.47353 9.17143 4.3023 9.21808 4.13751C9.27943 3.92125 9.379 3.71661 9.50865 3.53325C9.57334 3.44169 9.64552 3.35575 9.72411 3.27582C9.76354 3.23586 9.80498 3.19817 9.84694 3.16087C9.89479 3.11824 9.8571 3.09886 9.81353 3.07065C9.77757 3.047 9.74135 3.02334 9.70513 2.99982C9.63269 2.9525 9.56051 2.90505 9.4882 2.85787C9.39919 2.7996 9.30897 2.74252 9.22062 2.68291C9.11784 2.61354 9.07667 2.55005 9.20525 2.48323C9.27315 2.44794 9.34091 2.41185 9.40881 2.37617C9.55102 2.30118 9.6375 2.2143 9.78827 2.31589C9.8543 2.36013 9.91966 2.4053 9.98515 2.45021C10.1855 2.58695 10.3859 2.72341 10.5862 2.86003C11.0929 3.2062 11.5999 3.55172 12.1068 3.89761H12.1069Z" fill="#959595"/>
<path d="M5.58524 11.827C5.49903 11.9124 5.38622 11.9549 5.27381 11.9549C5.15967 11.9549 5.04552 11.9112 4.95891 11.8235L0.842308 7.66036C0.67029 7.48661 0.672025 7.20607 0.846183 7.03416C1.01994 6.86188 1.30048 6.86401 1.47238 7.0375L5.58864 11.2006C5.76093 11.3747 5.75919 11.6548 5.5853 11.827L5.58524 11.827Z" fill="#959595"/>
</g>
<defs>
<clipPath id="clip0_502_1680">
<rect width="14.7303" height="18.4" fill="white" transform="matrix(-1 0 0 1 15.1973 0.799988)"/>
</clipPath>
</defs>
</svg>
