<svg width="12" height="11" viewBox="0 0 12 11" fill="none" xmlns="http://www.w3.org/2000/svg">
<path d="M5.44992 0.0499878L10.3994 0.757488L11.1064 5.70749L6.51042 10.3035C6.41666 10.3972 6.28951 10.4499 6.15692 10.4499C6.02434 10.4499 5.89719 10.3972 5.80342 10.3035L0.853424 5.35349C0.759689 5.25972 0.707031 5.13257 0.707031 4.99999C0.707031 4.86741 0.759689 4.74025 0.853424 4.64649L5.44992 0.0499878ZM6.86392 4.29299C6.9568 4.38583 7.06706 4.45947 7.18839 4.50971C7.30973 4.55994 7.43978 4.58579 7.5711 4.58576C7.70243 4.58574 7.83246 4.55985 7.95378 4.50957C8.0751 4.4593 8.18533 4.38562 8.27817 4.29274C8.37102 4.19986 8.44466 4.08961 8.4949 3.96827C8.54513 3.84693 8.57097 3.71689 8.57095 3.58556C8.57093 3.45424 8.54504 3.3242 8.49476 3.20288C8.44448 3.08156 8.3708 2.97133 8.27792 2.87849C8.18505 2.78564 8.07479 2.712 7.95345 2.66177C7.83212 2.61153 7.70207 2.58569 7.57075 2.58571C7.30552 2.58576 7.05118 2.69116 6.86367 2.87874C6.67617 3.06631 6.57085 3.32069 6.5709 3.58591C6.57095 3.85114 6.67635 4.10548 6.86392 4.29299Z" fill="#64B449"/>
</svg>
