<svg width="25" height="25" viewBox="0 0 25 25" fill="none" xmlns="http://www.w3.org/2000/svg">
<g clip-path="url(#clip0_6_58)">
<path fill-rule="evenodd" clip-rule="evenodd" d="M18.6496 2H5.83328C4.62224 2 3.51224 3.00912 3.51224 4.32104V6.33944C2.70489 6.33944 1.5949 6.44032 1.5949 7.65135C1.29211 7.65135 0.989471 7.85312 0.989471 8.25678V11.486C0.989471 11.7888 1.29226 12.0915 1.5949 12.0915C1.69578 13.2016 2.70504 13.3025 3.51224 13.3025V20.6695H4.72329V22.0823C4.72329 23.2933 7.14535 23.2933 7.14535 22.0823V20.6695H17.3378V22.0823C17.3378 23.2933 19.8608 23.2933 19.8608 22.0823V20.6695H20.9709V13.3025C21.8791 13.3025 22.7874 13.2016 22.8882 12.0915H22.9891C23.2919 12.0915 23.5946 11.7887 23.5946 11.486V8.25678C23.5946 7.85309 23.2918 7.65135 22.9891 7.65135H22.8882C22.8882 6.44031 21.8791 6.33944 20.9709 6.33944V4.32104C20.9709 3.00912 19.9618 2 18.6499 2L18.6496 2ZM9.97069 12.4953C10.3744 12.5962 10.6772 12.9999 10.6772 13.4035V13.9081H11.8882V6.03661H5.83317C5.22774 6.03661 4.62212 6.64204 4.62212 7.24766V12.697C4.62212 13.4035 5.22755 13.908 5.83317 13.908H6.53966V13.4035C6.53966 12.9998 6.84245 12.5961 7.24614 12.4952V11.7889C7.24614 10.7798 9.97084 10.7798 9.97084 11.7889V12.4952L9.97069 12.4953ZM12.2917 2.80739H17.0349C18.2459 2.80739 18.2459 4.523 17.0349 4.523H7.54859C6.33755 4.523 6.33755 2.80739 7.54859 2.80739H12.2917ZM12.2917 16.1282H14.411C14.9156 16.1282 15.3192 16.431 15.622 16.8347H8.96164C9.26443 16.431 9.66812 16.1282 10.1727 16.1282H12.292H12.2917ZM12.2917 17.2383H15.521C15.9247 17.2383 15.9247 17.9448 15.521 17.9448H9.06262C8.65892 17.9448 8.65892 17.2383 9.06262 17.2383H12.2917ZM15.622 18.4494C15.3192 18.8531 14.9156 19.0548 14.411 19.0548H10.1724C9.66782 19.0548 9.26416 18.853 8.96134 18.4494H15.6217H15.622ZM6.13577 16.431C6.7412 16.431 7.34682 16.9355 7.34682 17.642C7.34682 18.3485 6.74139 18.8531 6.13577 18.8531C5.42929 18.8531 4.92473 18.3485 4.92473 17.642C4.92473 16.9355 5.42929 16.431 6.13577 16.431ZM3.51195 12.5961V7.04555C3.00738 7.04555 2.3009 6.84378 2.3009 7.65098C2.60369 7.65098 2.80546 7.85274 2.80546 8.25641V11.4857C2.80546 11.7885 2.6037 12.0911 2.3009 12.0911C2.40178 12.6965 3.10825 12.5957 3.51195 12.5957V12.5961ZM18.6496 6.0365H12.5945V13.908H18.6496C19.356 13.908 19.8606 13.4034 19.8606 12.6969V7.24762C19.8606 6.64219 19.356 6.03657 18.6496 6.03657V6.0365ZM18.4478 16.431C17.7413 16.431 17.2367 16.9355 17.2367 17.642C17.2367 18.3485 17.7413 18.8531 18.4478 18.8531C19.1543 18.8531 19.6588 18.3485 19.6588 17.642C19.6588 16.9355 19.1543 16.431 18.4478 16.431ZM20.9708 12.5961V7.04555C21.4753 7.04555 22.2827 6.84378 22.2827 7.65098C21.9799 7.65098 21.6772 7.85274 21.6772 8.25641V11.4857C21.6772 11.7885 21.98 12.0911 22.2827 12.0911C22.1818 12.6965 21.4753 12.5957 20.9708 12.5957V12.5961Z" fill="#F56F53"/>
</g>
<defs>
<clipPath id="clip0_6_58">
<rect width="22.6024" height="21" fill="white" transform="translate(1 2)"/>
</clipPath>
</defs>
</svg>
