<svg width="25" height="25" viewBox="0 0 25 25" fill="none" xmlns="http://www.w3.org/2000/svg">
<g opacity="0.6">
<g clip-path="url(#clip0_6_152)">
<path d="M14.1268 12.407V14.0516C14.1268 14.0916 14.0942 14.1241 14.0541 14.1241H12.4096C12.3907 14.1239 12.3725 14.1163 12.3593 14.1025C12.3461 14.089 12.339 14.0706 12.3394 14.0516V12.4069C12.3394 12.3677 12.3704 12.3356 12.4096 12.3343H14.0541C14.0734 12.3343 14.0918 12.3419 14.1056 12.3557C14.1192 12.3692 14.1268 12.3878 14.1268 12.407H14.1268Z" fill="#121212"/>
<path d="M10.4112 12.3346H8.76673C8.72696 12.3358 8.695 12.3677 8.69407 12.4073V14.0519C8.69407 14.0919 8.72659 14.1244 8.76673 14.1244H10.4112C10.4513 14.1244 10.4839 14.0919 10.4839 14.0519V12.4073C10.4829 12.3677 10.451 12.3357 10.4112 12.3346ZM10.4112 12.3346H8.76673C8.72696 12.3358 8.695 12.3677 8.69407 12.4073V14.0519C8.69407 14.0919 8.72659 14.1244 8.76673 14.1244H10.4112C10.4513 14.1244 10.4839 14.0919 10.4839 14.0519V12.4073C10.4829 12.3677 10.451 12.3357 10.4112 12.3346ZM6.7686 8.66302H5.12171C5.08287 8.66302 5.05146 8.69443 5.05146 8.73327V10.3777C5.05091 10.3967 5.05815 10.4151 5.07135 10.4287C5.08454 10.4424 5.10257 10.4502 5.12171 10.4504H6.7686C6.78756 10.4502 6.80577 10.4424 6.81896 10.4287C6.83216 10.4151 6.83922 10.3967 6.83885 10.3777V8.73327C6.83885 8.69443 6.80744 8.66302 6.7686 8.66302H6.7686ZM6.7686 12.3348H5.12171V12.3346C5.0825 12.3359 5.05146 12.3681 5.05146 12.4073V14.052C5.05091 14.0709 5.05815 14.0893 5.07135 14.1029C5.08454 14.1166 5.10257 14.1242 5.12171 14.1244H6.7686C6.78756 14.1242 6.80577 14.1166 6.81896 14.1029C6.83216 14.0893 6.83922 14.0709 6.83885 14.052V12.4073C6.83885 12.3681 6.80781 12.3359 6.7686 12.3346L6.7686 12.3348ZM10.4112 12.3348L8.76673 12.3346C8.72696 12.3358 8.695 12.3677 8.69407 12.4073V14.052C8.69407 14.0919 8.72659 14.1244 8.76673 14.1244H10.4112C10.4513 14.1244 10.4839 14.0919 10.4839 14.052V12.4073C10.4829 12.3677 10.451 12.3358 10.4112 12.3346V12.3348ZM10.4112 12.3348L8.76673 12.3346C8.72696 12.3358 8.695 12.3677 8.69407 12.4073V14.052C8.69407 14.0919 8.72659 14.1244 8.76673 14.1244H10.4112C10.4513 14.1244 10.4839 14.0919 10.4839 14.052V12.4073C10.4829 12.3677 10.451 12.3358 10.4112 12.3346V12.3348ZM6.7686 8.66302H5.12171C5.08287 8.66302 5.05146 8.69443 5.05146 8.73327V10.3777C5.05091 10.3967 5.05815 10.4151 5.07135 10.4287C5.08454 10.4424 5.10257 10.4502 5.12171 10.4504H6.7686C6.78756 10.4502 6.80577 10.4424 6.81896 10.4287C6.83216 10.4151 6.83922 10.3967 6.83885 10.3777V8.73327C6.83885 8.69443 6.80744 8.66302 6.7686 8.66302H6.7686ZM6.7686 12.3348H5.12171V12.3346C5.0825 12.3359 5.05146 12.3681 5.05146 12.4073V14.052C5.05091 14.0709 5.05815 14.0893 5.07135 14.1029C5.08454 14.1166 5.10257 14.1242 5.12171 14.1244H6.7686C6.78756 14.1242 6.80577 14.1166 6.81896 14.1029C6.83216 14.0893 6.83922 14.0709 6.83885 14.052V12.4073C6.83885 12.3681 6.80781 12.3359 6.7686 12.3346L6.7686 12.3348ZM6.7686 4.98884H5.12171V4.98865C5.08287 4.98865 5.05146 5.02006 5.05146 5.0589V6.70336C5.05091 6.72232 5.05815 6.74072 5.07135 6.75447C5.08454 6.76803 5.10257 6.77584 5.12171 6.77603H6.7686C6.78756 6.77584 6.80577 6.76803 6.81896 6.75447C6.83216 6.74072 6.83922 6.72232 6.83885 6.70336V5.0589C6.83885 5.02006 6.80744 4.98865 6.7686 4.98865L6.7686 4.98884ZM6.7686 8.66302H5.12171V8.66284C5.08287 8.66284 5.05146 8.69424 5.05146 8.73308V10.3775C5.05091 10.3965 5.05815 10.4149 5.07135 10.4285C5.08454 10.4422 5.10257 10.45 5.12171 10.4502H6.7686C6.78756 10.45 6.80577 10.4422 6.81896 10.4285C6.83216 10.4149 6.83922 10.3965 6.83885 10.3775V8.73308C6.83885 8.69424 6.80744 8.66284 6.7686 8.66284L6.7686 8.66302ZM6.7686 12.3348H5.12171V12.3345C5.0825 12.3358 5.05146 12.3679 5.05146 12.4071V14.0518C5.05091 14.0707 5.05815 14.0891 5.07135 14.1027C5.08454 14.1164 5.10257 14.1241 5.12171 14.1242H6.7686C6.78756 14.1241 6.80577 14.1164 6.81896 14.1027C6.83216 14.0891 6.83922 14.0707 6.83885 14.0518V12.4071C6.83885 12.3679 6.80781 12.3358 6.7686 12.3345L6.7686 12.3348ZM10.4112 4.98884H8.76673C8.72752 4.98884 8.69537 5.01987 8.69407 5.05909V6.70355C8.69407 6.74369 8.72659 6.77621 8.76673 6.77621H10.4112C10.4513 6.77621 10.4839 6.74369 10.4839 6.70355V5.05909C10.4826 5.01988 10.4504 4.98884 10.4112 4.98884ZM10.4112 12.3348H8.76673C8.72696 12.3359 8.695 12.3679 8.69407 12.4075V14.0521C8.69407 14.0921 8.72659 14.1246 8.76673 14.1246H10.4112C10.4513 14.1246 10.4839 14.0921 10.4839 14.0521V12.4075C10.4829 12.3679 10.451 12.3359 10.4112 12.3348ZM10.4112 4.98884H8.76673C8.72752 4.98884 8.69537 5.01987 8.69407 5.05909V6.70355C8.69407 6.74369 8.72659 6.77621 8.76673 6.77621H10.4112C10.4513 6.77621 10.4839 6.74369 10.4839 6.70355V5.05909C10.4826 5.01988 10.4504 4.98884 10.4112 4.98884ZM10.4112 12.3348H8.76673C8.72696 12.3359 8.695 12.3679 8.69407 12.4075V14.0521C8.69407 14.0921 8.72659 14.1246 8.76673 14.1246H10.4112C10.4513 14.1246 10.4839 14.0921 10.4839 14.0521V12.4075C10.4829 12.3679 10.451 12.3359 10.4112 12.3348ZM6.7686 4.98884H5.12171C5.08287 4.98884 5.05146 5.02025 5.05146 5.05909V6.70355C5.05091 6.72251 5.05815 6.7409 5.07135 6.75465C5.08454 6.76822 5.10257 6.77603 5.12171 6.77621H6.7686C6.78756 6.77603 6.80577 6.76822 6.81896 6.75465C6.83216 6.7409 6.83922 6.7225 6.83885 6.70355V5.05909C6.83885 5.02025 6.80744 4.98884 6.7686 4.98884H6.7686ZM6.7686 8.66302H5.12171C5.08287 8.66302 5.05146 8.69443 5.05146 8.73327V10.3777C5.05091 10.3967 5.05815 10.4151 5.07135 10.4287C5.08454 10.4424 5.10257 10.4502 5.12171 10.4504H6.7686C6.78756 10.4502 6.80577 10.4424 6.81896 10.4287C6.83216 10.4151 6.83922 10.3967 6.83885 10.3777V8.73327C6.83885 8.69443 6.80744 8.66302 6.7686 8.66302H6.7686ZM6.7686 12.3348H5.12171V12.3346C5.0825 12.3359 5.05146 12.3681 5.05146 12.4073V14.052C5.05091 14.0709 5.05815 14.0893 5.07135 14.1029C5.08454 14.1166 5.10257 14.1242 5.12171 14.1244H6.7686C6.78756 14.1242 6.80577 14.1166 6.81896 14.1029C6.83216 14.0893 6.83922 14.0709 6.83885 14.052V12.4073C6.83885 12.3681 6.80781 12.3359 6.7686 12.3346L6.7686 12.3348ZM6.7686 4.98884H5.12171V4.98865C5.08287 4.98865 5.05146 5.02006 5.05146 5.0589V6.70336C5.05091 6.72232 5.05815 6.74072 5.07135 6.75447C5.08454 6.76803 5.10257 6.77584 5.12171 6.77603H6.7686C6.78756 6.77584 6.80577 6.76803 6.81896 6.75447C6.83216 6.74072 6.83922 6.72232 6.83885 6.70336V5.0589C6.83885 5.02006 6.80744 4.98865 6.7686 4.98865L6.7686 4.98884ZM6.7686 8.66302H5.12171V8.66284C5.08287 8.66284 5.05146 8.69424 5.05146 8.73308V10.3775C5.05091 10.3965 5.05815 10.4149 5.07135 10.4285C5.08454 10.4422 5.10257 10.45 5.12171 10.4502H6.7686C6.78756 10.45 6.80577 10.4422 6.81896 10.4285C6.83216 10.4149 6.83922 10.3965 6.83885 10.3775V8.73308C6.83885 8.69424 6.80744 8.66284 6.7686 8.66284L6.7686 8.66302ZM6.7686 12.3348H5.12171V12.3345C5.0825 12.3358 5.05146 12.3679 5.05146 12.4071V14.0518C5.05091 14.0707 5.05815 14.0891 5.07135 14.1027C5.08454 14.1164 5.10257 14.1241 5.12171 14.1242H6.7686C6.78756 14.1241 6.80577 14.1164 6.81896 14.1027C6.83216 14.0891 6.83922 14.0707 6.83885 14.0518V12.4071C6.83885 12.3679 6.80781 12.3358 6.7686 12.3345L6.7686 12.3348ZM10.4112 4.98884H8.76673C8.72752 4.98884 8.69537 5.01987 8.69407 5.05909V6.70355C8.69407 6.74369 8.72659 6.77621 8.76673 6.77621H10.4112C10.4513 6.77621 10.4839 6.74369 10.4839 6.70355V5.05909C10.4826 5.01988 10.4504 4.98884 10.4112 4.98884ZM10.4112 8.66302H8.76673C8.72752 8.66302 8.69537 8.69406 8.69407 8.73327V10.3777C8.69407 10.4179 8.72659 10.4504 8.76673 10.4504H10.4112C10.4513 10.4504 10.4839 10.4179 10.4839 10.3777V8.73327C10.4826 8.69406 10.4504 8.66302 10.4112 8.66302ZM10.4112 12.3348L8.76673 12.3346C8.72696 12.3358 8.695 12.3677 8.69407 12.4073V14.052C8.69407 14.0919 8.72659 14.1244 8.76673 14.1244H10.4112C10.4513 14.1244 10.4839 14.0919 10.4839 14.052V12.4073C10.4829 12.3677 10.451 12.3358 10.4112 12.3346V12.3348ZM14.0538 8.66302H12.4093C12.3705 8.66302 12.3391 8.69443 12.3391 8.73327V10.3777C12.3387 10.3967 12.3458 10.4151 12.359 10.4287C12.3722 10.4424 12.3904 10.4502 12.4093 10.4504H14.0538C14.0939 10.4504 14.1264 10.4179 14.1264 10.3777V8.73327C14.1263 8.71413 14.1185 8.6961 14.1049 8.68291C14.0911 8.66972 14.0727 8.66247 14.0538 8.66302L14.0538 8.66302ZM14.0538 8.66302H12.4093C12.3705 8.66302 12.3391 8.69443 12.3391 8.73327V10.3777C12.3387 10.3967 12.3458 10.4151 12.359 10.4287C12.3722 10.4424 12.3904 10.4502 12.4093 10.4504H14.0538C14.0939 10.4504 14.1264 10.4179 14.1264 10.3777V8.73327C14.1263 8.71413 14.1185 8.6961 14.1049 8.68291C14.0911 8.66972 14.0727 8.66247 14.0538 8.66302L14.0538 8.66302ZM10.4112 4.98884H8.76673C8.72752 4.98884 8.69537 5.01987 8.69407 5.05909V6.70355C8.69407 6.74369 8.72659 6.77621 8.76673 6.77621H10.4112C10.4513 6.77621 10.4839 6.74369 10.4839 6.70355V5.05909C10.4826 5.01988 10.4504 4.98884 10.4112 4.98884ZM10.4112 8.66302H8.76673C8.72752 8.66302 8.69537 8.69406 8.69407 8.73327V10.3777C8.69407 10.4179 8.72659 10.4504 8.76673 10.4504H10.4112C10.4513 10.4504 10.4839 10.4179 10.4839 10.3777V8.73327C10.4826 8.69406 10.4504 8.66302 10.4112 8.66302ZM10.4112 12.3348L8.76673 12.3346C8.72696 12.3358 8.695 12.3677 8.69407 12.4073V14.052C8.69407 14.0919 8.72659 14.1244 8.76673 14.1244H10.4112C10.4513 14.1244 10.4839 14.0919 10.4839 14.052V12.4073C10.4829 12.3677 10.451 12.3358 10.4112 12.3346V12.3348ZM6.7686 4.98884H5.12171C5.08287 4.98884 5.05146 5.02025 5.05146 5.05909V6.70355C5.05091 6.72251 5.05815 6.7409 5.07135 6.75465C5.08454 6.76822 5.10257 6.77603 5.12171 6.77621H6.7686C6.78756 6.77603 6.80577 6.76822 6.81896 6.75465C6.83216 6.7409 6.83922 6.7225 6.83885 6.70355V5.05909C6.83885 5.02025 6.80744 4.98884 6.7686 4.98884H6.7686ZM6.7686 8.66302H5.12171C5.08287 8.66302 5.05146 8.69443 5.05146 8.73327V10.3777C5.05091 10.3967 5.05815 10.4151 5.07135 10.4287C5.08454 10.4424 5.10257 10.4502 5.12171 10.4504H6.7686C6.78756 10.4502 6.80577 10.4424 6.81896 10.4287C6.83216 10.4151 6.83922 10.3967 6.83885 10.3777V8.73327C6.83885 8.69443 6.80744 8.66302 6.7686 8.66302H6.7686ZM6.7686 12.3348H5.12171V12.3346C5.0825 12.3359 5.05146 12.3681 5.05146 12.4073V14.052C5.05091 14.0709 5.05815 14.0893 5.07135 14.1029C5.08454 14.1166 5.10257 14.1242 5.12171 14.1244H6.7686C6.78756 14.1242 6.80577 14.1166 6.81896 14.1029C6.83216 14.0893 6.83922 14.0709 6.83885 14.052V12.4073C6.83885 12.3681 6.80781 12.3359 6.7686 12.3346L6.7686 12.3348ZM7.32313 14.052C7.32313 14.3586 7.07522 14.6077 6.7686 14.6089H5.12171C4.81489 14.6076 4.56699 14.3586 4.56699 14.052V12.4073C4.56699 12.1007 4.8149 11.8517 5.12171 11.8504H6.7686C7.07523 11.8517 7.32313 12.1007 7.32313 12.4073V14.052ZM7.32313 10.3778C7.32313 10.6844 7.07522 10.9335 6.7686 10.9348H5.12171C4.81489 10.9335 4.56699 10.6844 4.56699 10.3778V8.73334C4.56829 8.42745 4.81583 8.1799 5.12171 8.17862H6.7686C7.07431 8.17992 7.32185 8.42746 7.32313 8.73334V10.3778ZM7.32313 6.70362C7.32313 7.01043 7.07522 7.25948 6.7686 7.26076H5.12171C4.81489 7.25946 4.56699 7.01044 4.56699 6.70362V5.05915C4.56829 4.75345 4.81583 4.50591 5.12171 4.50444H6.7686C7.07431 4.50592 7.32185 4.75346 7.32313 5.05915V6.70362ZM10.9683 14.052C10.9683 14.3595 10.7189 14.6089 10.4112 14.6089H8.76673C8.45898 14.6089 8.20959 14.3595 8.20959 14.052V12.4073C8.20959 12.0998 8.45898 11.8504 8.76673 11.8504H10.4112C10.7189 11.8504 10.9683 12.0998 10.9683 12.4073V14.052ZM10.9683 10.3778C10.9683 10.6854 10.7189 10.9348 10.4112 10.9348H8.76673C8.45898 10.9348 8.20959 10.6854 8.20959 10.3778V8.73334C8.21107 8.42652 8.45991 8.17862 8.76673 8.17862H10.4112C10.7178 8.17862 10.9669 8.42652 10.9683 8.73334V10.3778ZM10.9683 6.70362C10.9683 7.01137 10.7189 7.26076 10.4112 7.26076H8.76673C8.45898 7.26076 8.20959 7.01137 8.20959 6.70362V5.05915C8.21107 4.75252 8.45991 4.50444 8.76673 4.50444H10.4112C10.7178 4.50444 10.9669 4.75253 10.9683 5.05915V6.70362ZM14.6109 14.052C14.6109 14.3595 14.3615 14.6089 14.0538 14.6089H12.4093C12.1027 14.6076 11.8548 14.3586 11.8548 14.052V12.4073C11.8548 12.1007 12.1027 11.8517 12.4093 11.8504H14.0538C14.3615 11.8504 14.6109 12.0998 14.6109 12.4073V14.052ZM14.6109 10.3778C14.6109 10.6854 14.3615 10.9348 14.0538 10.9348H12.4093C12.1027 10.9335 11.8548 10.6844 11.8548 10.3778V8.73334C11.8561 8.42745 12.1036 8.1799 12.4093 8.17862H14.0538C14.3606 8.17862 14.6096 8.42652 14.6109 8.73334V10.3778ZM14.6109 6.70362C14.6109 7.01137 14.3615 7.26076 14.0538 7.26076H12.4093C12.1027 7.25946 11.8548 7.01044 11.8548 6.70362V5.05915C11.8561 4.75345 12.1036 4.50591 12.4093 4.50444H14.0538C14.3606 4.50444 14.6096 4.75253 14.6109 5.05915V6.70362ZM14.0538 8.66293L12.4093 8.66311C12.3705 8.66311 12.3391 8.69452 12.3391 8.73336V10.3778C12.3387 10.3968 12.3458 10.4152 12.359 10.4287C12.3722 10.4425 12.3904 10.4503 12.4093 10.4505H14.0538C14.0939 10.4505 14.1264 10.418 14.1264 10.3778V8.73336C14.1263 8.71422 14.1185 8.6962 14.1049 8.683C14.0911 8.66981 14.0727 8.66256 14.0538 8.66312L14.0538 8.66293ZM14.0538 4.98874L12.4093 4.98893C12.3705 4.98893 12.3391 5.02034 12.3391 5.05918V6.70364C12.3387 6.7226 12.3458 6.74099 12.359 6.75475C12.3722 6.76831 12.3904 6.77612 12.4093 6.7763H14.0538C14.0939 6.7763 14.1264 6.74378 14.1264 6.70364V5.05918C14.1263 5.04022 14.1185 5.02201 14.1049 5.00882C14.0911 4.99562 14.0727 4.98856 14.0538 4.98893L14.0538 4.98874ZM10.4112 12.3347H8.76673C8.72696 12.3358 8.695 12.3678 8.69407 12.4074V14.052C8.69407 14.092 8.72659 14.1245 8.76673 14.1245H10.4112C10.4513 14.1245 10.4839 14.092 10.4839 14.052V12.4074C10.4829 12.3678 10.451 12.3358 10.4112 12.3347ZM10.4112 8.66293L8.76673 8.66311C8.72752 8.66311 8.69537 8.69415 8.69407 8.73336V10.3778C8.69407 10.418 8.72659 10.4505 8.76673 10.4505H10.4112C10.4513 10.4505 10.4839 10.418 10.4839 10.3778V8.73336C10.4826 8.69415 10.4504 8.66311 10.4112 8.66311V8.66293ZM10.4112 4.98874L8.76673 4.98893C8.72752 4.98893 8.69537 5.01996 8.69407 5.05918V6.70364C8.69407 6.74378 8.72659 6.7763 8.76673 6.7763H10.4112C10.4513 6.7763 10.4839 6.74378 10.4839 6.70364V5.05918C10.4826 5.01997 10.4504 4.98893 10.4112 4.98893V4.98874ZM6.7686 12.3347H5.12171C5.0825 12.336 5.05146 12.3682 5.05146 12.4074V14.052C5.05091 14.071 5.05815 14.0894 5.07135 14.103C5.08454 14.1167 5.10257 14.1243 5.12171 14.1245H6.7686C6.78756 14.1243 6.80577 14.1167 6.81896 14.103C6.83216 14.0894 6.83922 14.071 6.83885 14.052V12.4074C6.83885 12.3682 6.80781 12.336 6.7686 12.3347H6.7686ZM6.7686 8.66293H5.12171V8.66311C5.08287 8.66311 5.05146 8.69452 5.05146 8.73336V10.3778C5.05091 10.3968 5.05815 10.4152 5.07135 10.4287C5.08454 10.4425 5.10257 10.4503 5.12171 10.4505H6.7686C6.78756 10.4503 6.80577 10.4425 6.81896 10.4287C6.83216 10.4152 6.83922 10.3968 6.83885 10.3778V8.73336C6.83885 8.69452 6.80744 8.66311 6.7686 8.66311L6.7686 8.66293ZM6.7686 4.98874H5.12171V4.98893C5.08287 4.98893 5.05146 5.02034 5.05146 5.05918V6.70364C5.05091 6.7226 5.05815 6.74099 5.07135 6.75475C5.08454 6.76831 5.10257 6.77612 5.12171 6.7763H6.7686C6.78756 6.77612 6.80577 6.76831 6.81896 6.75475C6.83216 6.74099 6.83922 6.72259 6.83885 6.70364V5.05918C6.83885 5.02034 6.80744 4.98893 6.7686 4.98893L6.7686 4.98874ZM6.7686 12.3347H5.12171V12.3349C5.0825 12.3362 5.05146 12.3684 5.05146 12.4076V14.0522C5.05091 14.0712 5.05815 14.0896 5.07135 14.1031C5.08454 14.1169 5.10257 14.1245 5.12171 14.1247H6.7686C6.78756 14.1245 6.80577 14.1169 6.81896 14.1031C6.83216 14.0896 6.83922 14.0712 6.83885 14.0522V12.4076C6.83885 12.3684 6.80781 12.3362 6.7686 12.3349L6.7686 12.3347ZM6.7686 8.66293H5.12171V8.6633C5.08287 8.6633 5.05146 8.69471 5.05146 8.73355V10.378C5.05091 10.397 5.05815 10.4154 5.07135 10.4289C5.08454 10.4427 5.10257 10.4505 5.12171 10.4507H6.7686C6.78756 10.4505 6.80577 10.4427 6.81896 10.4289C6.83216 10.4154 6.83922 10.397 6.83885 10.378V8.73355C6.83885 8.69471 6.80744 8.6633 6.7686 8.6633L6.7686 8.66293ZM6.7686 4.98874H5.12171V4.98912C5.08287 4.98912 5.05146 5.02052 5.05146 5.05936V6.70383C5.05091 6.72278 5.05815 6.74118 5.07135 6.75493C5.08454 6.7685 5.10257 6.7763 5.12171 6.77649H6.7686C6.78756 6.7763 6.80577 6.7685 6.81896 6.75493C6.83216 6.74118 6.83922 6.72278 6.83885 6.70383V5.05936C6.83885 5.02052 6.80744 4.98912 6.7686 4.98912L6.7686 4.98874ZM10.4112 12.3347H8.76673C8.72696 12.3358 8.695 12.3678 8.69407 12.4074V14.052C8.69407 14.092 8.72659 14.1245 8.76673 14.1245H10.4112C10.4513 14.1245 10.4839 14.092 10.4839 14.052V12.4074C10.4829 12.3678 10.451 12.3358 10.4112 12.3347ZM10.4112 8.66293L8.76673 8.66311C8.72752 8.66311 8.69537 8.69415 8.69407 8.73336V10.3778C8.69407 10.418 8.72659 10.4505 8.76673 10.4505H10.4112C10.4513 10.4505 10.4839 10.418 10.4839 10.3778V8.73336C10.4826 8.69415 10.4504 8.66311 10.4112 8.66311V8.66293ZM10.4112 4.98874L8.76673 4.98893C8.72752 4.98893 8.69537 5.01996 8.69407 5.05918V6.70364C8.69407 6.74378 8.72659 6.7763 8.76673 6.7763H10.4112C10.4513 6.7763 10.4839 6.74378 10.4839 6.70364V5.05918C10.4826 5.01997 10.4504 4.98893 10.4112 4.98893V4.98874ZM10.4112 12.3347L8.76673 12.3349C8.72696 12.336 8.695 12.368 8.69407 12.4076V14.0522C8.69407 14.0922 8.72659 14.1247 8.76673 14.1247H10.4112C10.4513 14.1247 10.4839 14.0922 10.4839 14.0522V12.4076C10.4829 12.368 10.451 12.336 10.4112 12.3349V12.3347ZM10.4112 8.66293L8.76673 8.6633C8.72752 8.6633 8.69537 8.69433 8.69407 8.73355V10.378C8.69407 10.4181 8.72659 10.4507 8.76673 10.4507H10.4112C10.4513 10.4507 10.4839 10.4181 10.4839 10.378V8.73355C10.4826 8.69433 10.4504 8.6633 10.4112 8.6633V8.66293ZM10.4112 4.98874L8.76673 4.98912C8.72752 4.98912 8.69537 5.02015 8.69407 5.05936V6.70383C8.69407 6.74397 8.72659 6.77649 8.76673 6.77649H10.4112C10.4513 6.77649 10.4839 6.74397 10.4839 6.70383V5.05936C10.4826 5.02015 10.4504 4.98912 10.4112 4.98912V4.98874ZM6.7686 12.3347H5.12171C5.0825 12.336 5.05146 12.3682 5.05146 12.4074V14.052C5.05091 14.071 5.05815 14.0894 5.07135 14.103C5.08454 14.1167 5.10257 14.1243 5.12171 14.1245H6.7686C6.78756 14.1243 6.80577 14.1167 6.81896 14.103C6.83216 14.0894 6.83922 14.071 6.83885 14.052V12.4074C6.83885 12.3682 6.80781 12.336 6.7686 12.3347H6.7686ZM6.7686 8.66293H5.12171V8.66311C5.08287 8.66311 5.05146 8.69452 5.05146 8.73336V10.3778C5.05091 10.3968 5.05815 10.4152 5.07135 10.4287C5.08454 10.4425 5.10257 10.4503 5.12171 10.4505H6.7686C6.78756 10.4503 6.80577 10.4425 6.81896 10.4287C6.83216 10.4152 6.83922 10.3968 6.83885 10.3778V8.73336C6.83885 8.69452 6.80744 8.66311 6.7686 8.66311L6.7686 8.66293ZM6.7686 4.98874H5.12171V4.98893C5.08287 4.98893 5.05146 5.02034 5.05146 5.05918V6.70364C5.05091 6.7226 5.05815 6.74099 5.07135 6.75475C5.08454 6.76831 5.10257 6.77612 5.12171 6.7763H6.7686C6.78756 6.77612 6.80577 6.76831 6.81896 6.75475C6.83216 6.74099 6.83922 6.72259 6.83885 6.70364V5.05918C6.83885 5.02034 6.80744 4.98893 6.7686 4.98893L6.7686 4.98874ZM6.7686 12.3347H5.12171V12.3349C5.0825 12.3362 5.05146 12.3684 5.05146 12.4076V14.0522C5.05091 14.0712 5.05815 14.0896 5.07135 14.1031C5.08454 14.1169 5.10257 14.1245 5.12171 14.1247H6.7686C6.78756 14.1245 6.80577 14.1169 6.81896 14.1031C6.83216 14.0896 6.83922 14.0712 6.83885 14.0522V12.4076C6.83885 12.3684 6.80781 12.3362 6.7686 12.3349L6.7686 12.3347ZM6.7686 8.66293H5.12171V8.6633C5.08287 8.6633 5.05146 8.69471 5.05146 8.73355V10.378C5.05091 10.397 5.05815 10.4154 5.07135 10.4289C5.08454 10.4427 5.10257 10.4505 5.12171 10.4507H6.7686C6.78756 10.4505 6.80577 10.4427 6.81896 10.4289C6.83216 10.4154 6.83922 10.397 6.83885 10.378V8.73355C6.83885 8.69471 6.80744 8.6633 6.7686 8.6633L6.7686 8.66293ZM6.7686 4.98874H5.12171V4.98912C5.08287 4.98912 5.05146 5.02052 5.05146 5.05936V6.70383C5.05091 6.72278 5.05815 6.74118 5.07135 6.75493C5.08454 6.7685 5.10257 6.7763 5.12171 6.77649H6.7686C6.78756 6.7763 6.80577 6.7685 6.81896 6.75493C6.83216 6.74118 6.83922 6.72278 6.83885 6.70383V5.05936C6.83885 5.02052 6.80744 4.98912 6.7686 4.98912L6.7686 4.98874ZM10.4112 12.3347H8.76673C8.72696 12.3358 8.695 12.3678 8.69407 12.4074V14.052C8.69407 14.092 8.72659 14.1245 8.76673 14.1245H10.4112C10.4513 14.1245 10.4839 14.092 10.4839 14.052V12.4074C10.4829 12.3678 10.451 12.3358 10.4112 12.3347ZM10.4112 12.3347H8.76673C8.72696 12.3358 8.695 12.3678 8.69407 12.4074V14.052C8.69407 14.092 8.72659 14.1245 8.76673 14.1245H10.4112C10.4513 14.1245 10.4839 14.092 10.4839 14.052V12.4074C10.4829 12.3678 10.451 12.3358 10.4112 12.3347ZM6.7686 12.3347H5.12171C5.0825 12.336 5.05146 12.3682 5.05146 12.4074V14.052C5.05091 14.071 5.05815 14.0894 5.07135 14.103C5.08454 14.1167 5.10257 14.1243 5.12171 14.1245H6.7686C6.78756 14.1243 6.80577 14.1167 6.81896 14.103C6.83216 14.0894 6.83922 14.071 6.83885 14.052V12.4074C6.83885 12.3682 6.80781 12.336 6.7686 12.3347H6.7686ZM6.7686 8.66293H5.12171V8.66311C5.08287 8.66311 5.05146 8.69452 5.05146 8.73336V10.3778C5.05091 10.3968 5.05815 10.4152 5.07135 10.4287C5.08454 10.4425 5.10257 10.4503 5.12171 10.4505H6.7686C6.78756 10.4503 6.80577 10.4425 6.81896 10.4287C6.83216 10.4152 6.83922 10.3968 6.83885 10.3778V8.73336C6.83885 8.69452 6.80744 8.66311 6.7686 8.66311L6.7686 8.66293ZM6.7686 4.98874H5.12171V4.98893C5.08287 4.98893 5.05146 5.02034 5.05146 5.05918V6.70364C5.05091 6.7226 5.05815 6.74099 5.07135 6.75475C5.08454 6.76831 5.10257 6.77612 5.12171 6.7763H6.7686C6.78756 6.77612 6.80577 6.76831 6.81896 6.75475C6.83216 6.74099 6.83922 6.72259 6.83885 6.70364V5.05918C6.83885 5.02034 6.80744 4.98893 6.7686 4.98893L6.7686 4.98874ZM6.7686 12.3347H5.12171V12.3349C5.0825 12.3362 5.05146 12.3684 5.05146 12.4076V14.0522C5.05091 14.0712 5.05815 14.0896 5.07135 14.1031C5.08454 14.1169 5.10257 14.1245 5.12171 14.1247H6.7686C6.78756 14.1245 6.80577 14.1169 6.81896 14.1031C6.83216 14.0896 6.83922 14.0712 6.83885 14.0522V12.4076C6.83885 12.3684 6.80781 12.3362 6.7686 12.3349L6.7686 12.3347ZM10.4112 12.3347L8.76673 12.3349C8.72696 12.336 8.695 12.368 8.69407 12.4076V14.0522C8.69407 14.0922 8.72659 14.1247 8.76673 14.1247H10.4112C10.4513 14.1247 10.4839 14.0922 10.4839 14.0522V12.4076C10.4829 12.368 10.451 12.336 10.4112 12.3349V12.3347ZM10.4112 12.3347L8.76673 12.3349C8.72696 12.336 8.695 12.368 8.69407 12.4076V14.0522C8.69407 14.0922 8.72659 14.1247 8.76673 14.1247H10.4112C10.4513 14.1247 10.4839 14.0922 10.4839 14.0522V12.4076C10.4829 12.368 10.451 12.336 10.4112 12.3349V12.3347ZM6.7686 12.3347H5.12171V12.3349C5.0825 12.3362 5.05146 12.3684 5.05146 12.4076V14.0522C5.05091 14.0712 5.05815 14.0896 5.07135 14.1031C5.08454 14.1169 5.10257 14.1245 5.12171 14.1247H6.7686C6.78756 14.1245 6.80577 14.1169 6.81896 14.1031C6.83216 14.0896 6.83922 14.0712 6.83885 14.0522V12.4076C6.83885 12.3684 6.80781 12.3362 6.7686 12.3349L6.7686 12.3347ZM15.706 3.52821L3.47739 3.52839C3.4484 3.52932 3.41922 3.52765 3.39024 3.52356V23.9916C3.38968 24.056 3.41495 24.1179 3.46049 24.1635C3.50602 24.209 3.56808 24.2345 3.63239 24.2337H6.70837C6.57456 24.2337 6.46622 24.1254 6.46622 23.9916V19.1547C6.4967 18.0597 7.09844 17.0604 8.05236 16.5215C9.00608 15.9826 10.1726 15.9826 11.1263 16.5215C12.0802 17.0604 12.6819 18.0597 12.7124 19.1547V23.9916C12.7124 24.0557 12.687 24.1174 12.6414 24.1627C12.5961 24.2083 12.5346 24.2337 12.4703 24.2337H15.5463H15.5461C15.6106 24.2345 15.6726 24.209 15.7182 24.1635C15.7637 24.1179 15.789 24.0561 15.7884 23.9916V3.52356C15.7611 3.52765 15.7336 3.52932 15.7061 3.5284L15.706 3.52821ZM9.59025 16.5151C8.89038 16.5159 8.21934 16.7942 7.72442 17.2891C7.22955 17.7842 6.95114 18.4551 6.95024 19.155V23.7496H12.2277V19.155C12.2271 18.4555 11.9491 17.7846 11.4546 17.2897C10.9603 16.7948 10.2896 16.5162 9.5901 16.5152L9.59025 16.5151Z" fill="#121212"/>
<path d="M16.7329 2.01691C16.7322 2.28898 16.6238 2.54988 16.4315 2.74242C16.2389 2.93476 15.978 3.04329 15.706 3.04385H3.47739C3.10925 3.04385 2.76915 2.84742 2.58499 2.52852C2.40083 2.20962 2.40083 1.81676 2.58499 1.49805C2.76916 1.17916 3.10926 0.982727 3.47739 0.982727H15.706C15.9791 0.984028 16.2406 1.09367 16.4331 1.2875C16.6257 1.48133 16.7334 1.74373 16.7329 2.01691L16.7329 2.01691Z" fill="#121212"/>
<path d="M20.2663 20.1188V22.1751C20.2668 22.2152 20.2512 22.2537 20.223 22.282C20.1947 22.3102 20.1561 22.3258 20.1161 22.3253H18.0598C18.02 22.3254 17.9817 22.3098 17.9535 22.2816C17.9252 22.2533 17.9095 22.2151 17.9096 22.1751V20.1188C17.9102 20.0361 17.9771 19.9692 18.0598 19.9686H20.1161C20.1561 19.9684 20.1943 19.9842 20.2226 20.0125C20.2508 20.0407 20.2665 20.079 20.2663 20.1188L20.2663 20.1188Z" fill="#121212"/>
<path d="M20.1164 15.5288H18.0601C17.9774 15.5294 17.9105 15.5963 17.9099 15.6789V17.7353C17.9098 17.7754 17.9254 17.8141 17.9534 17.8427C17.9817 17.8713 18.02 17.8876 18.0601 17.8878H20.1164C20.1567 17.888 20.1954 17.8719 20.2236 17.843C20.2519 17.8144 20.2673 17.7756 20.2666 17.7353V15.6789C20.2668 15.6392 20.2512 15.6009 20.2229 15.5726C20.1947 15.5444 20.1564 15.5286 20.1164 15.5288L20.1164 15.5288ZM20.1164 15.5288H18.0601C17.9774 15.5294 17.9105 15.5963 17.9099 15.6789V17.7353C17.9098 17.7754 17.9254 17.8141 17.9534 17.8427C17.9817 17.8713 18.02 17.8876 18.0601 17.8878H20.1164C20.1567 17.888 20.1954 17.8719 20.2236 17.843C20.2519 17.8144 20.2673 17.7756 20.2666 17.7353V15.6789C20.2668 15.6392 20.2512 15.6009 20.2229 15.5726C20.1947 15.5444 20.1564 15.5286 20.1164 15.5288L20.1164 15.5288ZM21.4823 9.74753H16.2729V23.9914C16.2735 24.0741 16.2588 24.1562 16.2294 24.2335H21.662C21.7263 24.2335 21.7878 24.208 21.8333 24.1625C21.8787 24.1172 21.9041 24.0555 21.9041 23.9913V9.68473C21.7675 9.72654 21.6255 9.74773 21.4828 9.74773L21.4823 9.74753ZM20.7511 22.1745C20.7512 22.3429 20.6845 22.5045 20.5654 22.6235C20.4465 22.7426 20.2848 22.8093 20.1164 22.8091H18.0601C17.71 22.8087 17.426 22.5248 17.4257 22.1745V20.1182C17.426 19.768 17.71 19.4841 18.0601 19.4837H20.1164C20.2848 19.4835 20.4465 19.5502 20.5654 19.6692C20.6845 19.7883 20.7512 19.9498 20.7511 20.1182V22.1745ZM20.7511 17.735C20.7514 17.9038 20.6847 18.0654 20.5656 18.1849C20.4467 18.3044 20.2852 18.3717 20.1164 18.3721H18.0601C17.7094 18.3706 17.4258 18.0859 17.4257 17.735V15.6787C17.4268 15.3287 17.7102 15.0454 18.0601 15.0442H20.1164C20.4667 15.0446 20.7507 15.3286 20.7511 15.6787L20.7511 17.735ZM20.7511 13.2979C20.7507 13.6482 20.4667 13.9322 20.1164 13.9326H18.0601C17.7102 13.9313 17.4268 13.6479 17.4256 13.2979V11.2392V11.2394C17.4268 10.8893 17.7102 10.6059 18.0601 10.6048H20.1164C20.4667 10.6051 20.7507 10.8891 20.7511 11.2394V13.2979ZM20.1164 15.5286H18.0601C17.9774 15.5291 17.9105 15.596 17.9099 15.6787V17.735C17.9098 17.7752 17.9254 17.8138 17.9534 17.8424C17.9817 17.8711 18.02 17.8874 18.0601 17.8876H20.1164C20.1567 17.8878 20.1954 17.8716 20.2236 17.8428C20.2519 17.8142 20.2673 17.7753 20.2666 17.735V15.6787C20.2668 15.6389 20.2512 15.6007 20.2229 15.5724C20.1947 15.5442 20.1564 15.5284 20.1164 15.5286L20.1164 15.5286ZM20.1164 11.0891H18.0601C17.9774 11.0896 17.9105 11.1565 17.9099 11.2394V13.2981V13.2979C17.9105 13.3808 17.9774 13.4477 18.0601 13.4481H20.1164C20.1564 13.4483 20.1947 13.4327 20.2229 13.4044C20.2512 13.3762 20.2668 13.3379 20.2666 13.2979V11.2392V11.2394C20.2668 11.1995 20.2512 11.1612 20.2229 11.1329C20.1947 11.1047 20.1564 11.0889 20.1164 11.0891V11.0891Z" fill="#121212"/>
<path d="M22.5094 8.23656C22.5081 8.50844 22.3996 8.76897 22.2072 8.96131C22.0149 9.15366 21.7543 9.26219 21.4825 9.26349H16.2726V7.2048H21.4825C21.7553 7.20554 22.0167 7.31481 22.2093 7.50827C22.4018 7.70173 22.5098 7.96357 22.5094 8.23659V8.23656Z" fill="#121212"/>
<path d="M23.7249 24.2335H1.22979C1.09598 24.2335 0.98764 24.1252 0.98764 23.9914C0.98764 23.8576 1.09598 23.7492 1.22979 23.7492H23.7249C23.8587 23.7492 23.9671 23.8576 23.9671 23.9914C23.9671 24.1252 23.8587 24.2335 23.7249 24.2335Z" fill="#121212"/>
</g>
</g>
<defs>
<clipPath id="clip0_6_152">
<rect width="22.9785" height="23.2283" fill="white" transform="translate(1 1)"/>
</clipPath>
</defs>
</svg>
