<svg width="15" height="15" viewBox="0 0 15 15" fill="none" xmlns="http://www.w3.org/2000/svg">
<path d="M14.4774 7.50713C14.4774 7.29218 14.5924 7.00713 14.7024 6.7271C14.8924 6.25713 15.1075 5.72207 14.9224 5.18213C14.7374 4.63213 14.2274 4.31719 13.7825 4.03716C13.5274 3.88214 13.2625 3.71719 13.1375 3.55713C13.0125 3.39218 12.9325 3.11216 12.8524 2.81719C12.7125 2.32724 12.5575 1.76719 12.0774 1.43213C11.6075 1.10713 11.0174 1.13716 10.4924 1.16215C10.1823 1.17711 9.86236 1.19218 9.64742 1.1222C9.44742 1.06215 9.21739 0.882244 8.97745 0.697198C8.56293 0.372084 8.09296 0.00714111 7.49296 0.00714111C6.89296 0.00714111 6.42299 0.372084 6.0079 0.697084C5.76795 0.88213 5.53793 1.06203 5.33793 1.12208C5.12298 1.19206 4.80287 1.17711 4.49296 1.16204C3.96796 1.13704 3.37802 1.10702 2.9079 1.43202C2.42787 1.76707 2.27284 2.32699 2.1329 2.81707C2.05288 3.11204 1.97286 3.39207 1.84786 3.55702C1.72286 3.71706 1.45791 3.88202 1.20791 4.03704C0.757913 4.31707 0.247856 4.63202 0.0629418 5.18202C-0.122104 5.72196 0.0929645 6.25702 0.282919 6.72699C0.392965 7.00701 0.507919 7.29193 0.507919 7.50702C0.507919 7.72197 0.392965 8.00702 0.282919 8.28704C0.0929645 8.75702 -0.12211 9.29207 0.0629418 9.83202C0.247988 10.382 0.757913 10.697 1.20288 10.977C1.45791 11.132 1.72286 11.297 1.84786 11.457C1.97286 11.622 2.05288 11.902 2.1329 12.197C2.27286 12.6869 2.42787 13.247 2.9079 13.582C3.37787 13.907 3.96796 13.877 4.49296 13.852C4.80302 13.837 5.12299 13.822 5.33793 13.8919C5.53793 13.952 5.76796 14.1319 6.0079 14.3169C6.42296 14.6422 6.89296 15.0071 7.49296 15.0071C8.09296 15.0071 8.56293 14.6422 8.97802 14.3172C9.21797 14.1321 9.44799 13.9522 9.64799 13.8922C9.86294 13.8222 10.183 13.8372 10.493 13.8522C11.018 13.8772 11.6079 13.9072 12.078 13.5822C12.558 13.2472 12.7131 12.6873 12.853 12.1972C12.933 11.9022 13.0131 11.6222 13.1381 11.4572C13.2631 11.2972 13.528 11.1322 13.778 10.9772C14.228 10.6972 14.7381 10.3822 14.923 9.83224C15.108 9.2923 14.893 8.75724 14.703 8.28727C14.5925 8.00714 14.4774 7.7221 14.4774 7.50713ZM4.49343 5.50713C4.49343 4.95713 4.94343 4.50713 5.49343 4.50713C6.04343 4.50713 6.49343 4.95713 6.49343 5.50713C6.49343 6.05713 6.04343 6.50713 5.49343 6.50713C4.94343 6.50713 4.49343 6.05713 4.49343 5.50713ZM6.423 10.2623C6.32802 10.4222 6.16295 10.5073 5.99297 10.5073C5.90302 10.5073 5.81797 10.4823 5.73795 10.4373C5.49799 10.2923 5.423 9.98727 5.56295 9.75222L8.56238 4.75222C8.70735 4.51226 9.01238 4.43727 9.24743 4.57722C9.48739 4.72219 9.56238 5.02722 9.42243 5.26227L6.423 10.2623ZM9.493 10.5073C8.943 10.5073 8.493 10.0573 8.493 9.50725C8.493 8.95725 8.943 8.50725 9.493 8.50725C10.043 8.50725 10.493 8.95725 10.493 9.50725C10.4926 10.0573 10.0425 10.5073 9.493 10.5073Z" fill="white"/>
</svg>
