<svg width="20" height="20" viewBox="0 0 20 20" fill="none" xmlns="http://www.w3.org/2000/svg">
<g clip-path="url(#clip0_82_2)">
<path d="M11.3133 14.3924L7.05499 12.0699C6.64623 12.4757 6.1265 12.7513 5.56131 12.8621C4.99612 12.9729 4.41078 12.9139 3.87909 12.6925C3.34739 12.4711 2.89314 12.0973 2.57361 11.6181C2.25407 11.1389 2.08356 10.5759 2.08356 9.99993C2.08356 9.42399 2.25407 8.86093 2.57361 8.38176C2.89314 7.90258 3.34739 7.52873 3.87909 7.30735C4.41078 7.08596 4.99612 7.02694 5.56131 7.13774C6.1265 7.24853 6.64623 7.52418 7.05499 7.92993L11.3133 5.60743C11.1673 4.92221 11.2728 4.20731 11.6105 3.59347C11.9482 2.97963 12.4956 2.50787 13.1526 2.26446C13.8095 2.02104 14.5322 2.02224 15.1883 2.26783C15.8445 2.51343 16.3903 2.987 16.726 3.60196C17.0617 4.21692 17.1648 4.93216 17.0165 5.61689C16.8681 6.30162 16.4783 6.91009 15.9182 7.33101C15.3582 7.75194 14.6653 7.9572 13.9663 7.90926C13.2674 7.86132 12.609 7.56338 12.1117 7.06993L7.85332 9.39243C7.93826 9.79298 7.93826 10.2069 7.85332 10.6074L12.1117 12.9299C12.609 12.4365 13.2674 12.1385 13.9663 12.0906C14.6653 12.0427 15.3582 12.2479 15.9182 12.6688C16.4783 13.0898 16.8681 13.6982 17.0165 14.383C17.1648 15.0677 17.0617 15.7829 16.726 16.3979C16.3903 17.0129 15.8445 17.4864 15.1883 17.732C14.5322 17.9776 13.8095 17.9788 13.1526 17.7354C12.4956 17.492 11.9482 17.0202 11.6105 16.4064C11.2728 15.7925 11.1673 15.0776 11.3133 14.3924Z" fill="#F56F53"/>
</g>
<defs>
<clipPath id="clip0_82_2">
<rect width="20" height="20" fill="white"/>
</clipPath>
</defs>
</svg>
