<svg width="35" height="35" viewBox="0 0 35 35" fill="none" xmlns="http://www.w3.org/2000/svg">
<g filter="url(#filter0_d_135_923)">
<path d="M21.3433 19.4279L23.5833 17.1874C23.885 16.8894 24.2667 16.6854 24.6821 16.6002C25.0975 16.515 25.5287 16.5522 25.9233 16.7073L28.6533 17.7976C29.0521 17.9595 29.3941 18.2358 29.6361 18.5918C29.8781 18.9478 30.0094 19.3675 30.0133 19.798V24.799C30.011 25.0918 29.9494 25.3812 29.8324 25.6496C29.7153 25.918 29.5452 26.16 29.3321 26.3609C29.1191 26.5618 28.8677 26.7175 28.5929 26.8187C28.3181 26.9198 28.0257 26.9643 27.7333 26.9494C8.60332 25.7592 4.74332 9.55589 4.01332 3.35462C3.97943 3.0501 4.01039 2.74185 4.10417 2.45015C4.19794 2.15845 4.3524 1.88992 4.55738 1.66222C4.76237 1.43451 5.01323 1.2528 5.29348 1.12903C5.57372 1.00527 5.87698 0.942252 6.18332 0.944133H11.0133C11.4443 0.945409 11.8651 1.07563 12.2215 1.31804C12.5779 1.56045 12.8537 1.90397 13.0133 2.30441L14.1033 5.03497C14.2636 5.42812 14.3045 5.85978 14.2209 6.27603C14.1373 6.69229 13.9329 7.07468 13.6333 7.37545L11.3933 9.6159C11.3933 9.6159 12.6833 18.3477 21.3433 19.4279Z" fill="white"/>
</g>
<defs>
<filter id="filter0_d_135_923" x="0" y="0.944092" width="34.0133" height="34.0081" filterUnits="userSpaceOnUse" color-interpolation-filters="sRGB">
<feFlood flood-opacity="0" result="BackgroundImageFix"/>
<feColorMatrix in="SourceAlpha" type="matrix" values="0 0 0 0 0 0 0 0 0 0 0 0 0 0 0 0 0 0 127 0" result="hardAlpha"/>
<feOffset dy="4"/>
<feGaussianBlur stdDeviation="2"/>
<feComposite in2="hardAlpha" operator="out"/>
<feColorMatrix type="matrix" values="0 0 0 0 0 0 0 0 0 0 0 0 0 0 0 0 0 0 0.25 0"/>
<feBlend mode="normal" in2="BackgroundImageFix" result="effect1_dropShadow_135_923"/>
<feBlend mode="normal" in="SourceGraphic" in2="effect1_dropShadow_135_923" result="shape"/>
</filter>
</defs>
</svg>
