<svg width="32" height="33" viewBox="0 0 32 33" fill="none" xmlns="http://www.w3.org/2000/svg">
<g filter="url(#filter0_d_135_929)">
<path d="M26.2051 6.44243C22.615 0.906555 15.2852 -0.739246 9.60089 2.70198C4.06614 6.1432 2.27108 13.6241 5.86119 19.16L6.16037 19.6088L4.96366 24.0974L9.4513 22.9004L9.90006 23.1997C11.8447 24.247 13.9389 24.8455 16.0332 24.8455C18.277 24.8455 20.5208 24.247 22.4654 23.0501C28.0002 19.4592 29.6456 12.1279 26.2051 6.44243V6.44243ZM23.0638 17.963C22.4654 18.8608 21.7175 19.4592 20.6704 19.6088C20.072 19.6088 19.3241 19.9081 16.3323 18.7111C13.7893 17.5142 11.6951 15.5692 10.1992 13.3249C9.30171 12.2775 8.85295 10.931 8.70336 9.58442C8.70336 8.38747 9.15212 7.34014 9.90006 6.59205C10.1992 6.29282 10.4984 6.1432 10.7976 6.1432H11.5455C11.8447 6.1432 12.1439 6.1432 12.2935 6.74167C12.5926 7.48976 13.3406 9.28518 13.3406 9.4348C13.4902 9.58442 13.4902 9.88366 13.3406 10.0333C13.4902 10.3325 13.3406 10.6317 13.191 10.7814C13.0414 10.931 12.8918 11.2302 12.7422 11.3798C12.4431 11.5295 12.2935 11.8287 12.4431 12.1279C13.0414 13.0256 13.7893 13.9233 14.5373 14.6714C15.4348 15.4195 16.3323 16.018 17.3795 16.4669C17.6786 16.6165 17.9778 16.6165 18.1274 16.3172C18.277 16.018 19.0249 15.2699 19.3241 14.9707C19.6233 14.6714 19.7729 14.6714 20.072 14.8211L22.4654 16.018C22.7646 16.1676 23.0638 16.3172 23.2134 16.4669C23.363 16.9157 23.363 17.5142 23.0638 17.963V17.963Z" fill="white"/>
</g>
<defs>
<filter id="filter0_d_135_929" x="0" y="0.906738" width="32" height="31.9387" filterUnits="userSpaceOnUse" color-interpolation-filters="sRGB">
<feFlood flood-opacity="0" result="BackgroundImageFix"/>
<feColorMatrix in="SourceAlpha" type="matrix" values="0 0 0 0 0 0 0 0 0 0 0 0 0 0 0 0 0 0 127 0" result="hardAlpha"/>
<feOffset dy="4"/>
<feGaussianBlur stdDeviation="2"/>
<feComposite in2="hardAlpha" operator="out"/>
<feColorMatrix type="matrix" values="0 0 0 0 0 0 0 0 0 0 0 0 0 0 0 0 0 0 0.25 0"/>
<feBlend mode="normal" in2="BackgroundImageFix" result="effect1_dropShadow_135_929"/>
<feBlend mode="normal" in="SourceGraphic" in2="effect1_dropShadow_135_929" result="shape"/>
</filter>
</defs>
</svg>
